<svg width="60" height="60" viewBox="0 0 60 60" fill="none" xmlns="http://www.w3.org/2000/svg">
    <path d="M17.9001 27.43C20.2177 24.6956 23.319 22.7389 26.7847 21.8242C30.2505 20.9096 33.9135 21.0813 37.2785 22.316C40.6435 23.5508 43.5482 25.7891 45.5999 28.7282C47.6515 31.6674 48.7512 35.1656 48.7501 38.75C48.7501 39.7446 49.1452 40.6984 49.8485 41.4017C50.5517 42.1049 51.5056 42.5 52.5001 42.5C53.4947 42.5 54.4485 42.1049 55.1518 41.4017C55.855 40.6984 56.2501 39.7446 56.2501 38.75C56.2501 24.9425 45.0576 13.75 31.2501 13.75C27.7541 13.7457 24.2963 14.4769 21.1014 15.8961C17.9064 17.3153 15.0457 19.3907 12.7051 21.9875L11.8376 17.075C11.7608 16.5823 11.5866 16.1098 11.325 15.6853C11.0634 15.2607 10.7198 14.8926 10.3142 14.6025C9.90866 14.3123 9.44929 14.106 8.96302 13.9955C8.47674 13.8851 7.97331 13.8727 7.4822 13.9591C6.99108 14.0456 6.52214 14.2291 6.10282 14.499C5.68349 14.7689 5.32221 15.1197 5.0401 15.5309C4.75799 15.9421 4.56073 16.4054 4.45985 16.8938C4.35898 17.3821 4.35652 17.8857 4.45262 18.375L7.05762 33.15C7.23012 34.1275 7.78262 35 8.60012 35.57C9.60762 36.275 10.9351 36.4325 12.0626 36.075L26.1726 33.585C26.6653 33.5082 27.1378 33.334 27.5623 33.0724C27.9869 32.8108 28.355 32.4672 28.6452 32.0616C28.9353 31.6561 29.1417 31.1967 29.2521 30.7104C29.3626 30.2241 29.3749 29.7207 29.2885 29.2296C29.202 28.7385 29.0185 28.2695 28.7486 27.8502C28.4787 27.4309 28.1279 27.0696 27.7167 26.7875C27.3056 26.5054 26.8422 26.3081 26.3539 26.2073C25.8655 26.1064 25.3619 26.1039 24.8726 26.2L17.9026 27.4275L17.9001 27.43Z" fill="white" />
</svg>